<mxfile host="app.diagrams.net" modified="2024-04-13T23:16:30.948Z" agent="Mozilla/5.0 (X11; Linux x86_64; rv:124.0) Gecko/20100101 Firefox/124.0" etag="piQHAHXqjQOaOSlZ_ZzK" version="24.2.5" type="github">
  <diagram name="Page-1" id="Qj_BxcfMKIQ_ERxApTV2">
    <mxGraphModel dx="683" dy="363" grid="1" gridSize="10" guides="1" tooltips="1" connect="1" arrows="1" fold="1" page="1" pageScale="1" pageWidth="850" pageHeight="1100" math="0" shadow="0">
      <root>
        <mxCell id="0" />
        <mxCell id="1" parent="0" />
        <mxCell id="RxmNOSI8Ks62WlQ8BEST-1" value="" style="rounded=0;whiteSpace=wrap;html=1;" vertex="1" parent="1">
          <mxGeometry x="280" y="210" width="120" height="60" as="geometry" />
        </mxCell>
      </root>
    </mxGraphModel>
  </diagram>
</mxfile>
